<svg width="24" height="24" viewBox="0 0 24 24" fill="none" xmlns="http://www.w3.org/2000/svg">
<g clip-path="url(#clip0_415_2940)">
<path fill-rule="evenodd" clip-rule="evenodd" d="M9.78307 2.02394C10.2615 1.91762 10.7465 2.17369 10.9285 2.62873L12 5.30754L13.0715 2.62873C13.2535 2.17369 13.7385 1.91762 14.2169 2.02394L23.2169 4.02394C23.5033 4.08758 23.7473 4.27377 23.8843 4.5332C24.0213 4.79263 24.0374 5.09912 23.9285 5.37151L22.077 10.0001L23.9285 14.6287C24.0374 14.9011 24.0213 15.2076 23.8843 15.467C23.7473 15.7265 23.5033 15.9127 23.2169 15.9763L22 16.2467V20C22 20.4687 21.6745 20.8745 21.2169 20.9762L12.2175 22.9761C12.2027 22.9794 12.1872 22.9824 12.1724 22.985C12.0448 23.0074 11.9126 23.005 11.7831 22.9762L2.78307 20.9762C2.32553 20.8745 2 20.4687 2 20V16.2467L0.78307 15.9763C0.496683 15.9127 0.252688 15.7265 0.115704 15.467C-0.0212797 15.2076 -0.0374322 14.9011 0.071524 14.6287L1.92297 10.0001L0.071524 5.37151C-0.0374322 5.09912 -0.0212797 4.79263 0.115704 4.5332C0.252688 4.27377 0.496683 4.08758 0.78307 4.02394L9.78307 2.02394ZM11 17.1927L10.9285 17.3715C10.7465 17.8266 10.2615 18.0826 9.78307 17.9763L4 16.6912V19.1978L11 20.7534V17.1927ZM13 20.7534V17.1927L13.0715 17.3715C13.2535 17.8266 13.7385 18.0826 14.2169 17.9763L20 16.6912V19.1978L13 20.7534ZM7.61003 10.0001L12 10.9756L16.39 10.0001L12 9.02452L7.61003 10.0001ZM2.36542 5.72109L3.6128 8.83955L10.6346 7.27916L9.3872 4.1607L2.36542 5.72109ZM14.6128 4.1607L13.3654 7.27916L20.3872 8.83955L21.6346 5.72109L14.6128 4.1607ZM13.3654 12.7211L14.6128 15.8396L21.6346 14.2792L20.3872 11.1607L13.3654 12.7211ZM2.36542 14.2792L3.6128 11.1607L10.6346 12.7211L9.3872 15.8396L2.36542 14.2792Z" fill="#7F713E"/>
</g>
<defs>
<clipPath id="clip0_415_2940">
<rect width="24" height="24" fill="white"/>
</clipPath>
</defs>
</svg>
