<svg width="24" height="24" viewBox="0 0 24 24" fill="none" xmlns="http://www.w3.org/2000/svg">
<path d="M10 9C10 9.55228 9.55229 10 9 10C8.44772 10 8 9.55228 8 9C8 8.44772 8.44772 8 9 8C9.55229 8 10 8.44772 10 9Z" fill="#7F713E"/>
<path d="M15 10C15.5523 10 16 9.55228 16 9C16 8.44772 15.5523 8 15 8C14.4477 8 14 8.44772 14 9C14 9.55228 14.4477 10 15 10Z" fill="#7F713E"/>
<path fill-rule="evenodd" clip-rule="evenodd" d="M4 4C3.44772 4 3 4.44772 3 5V10H2C1.44772 10 1 10.4477 1 11V19C1 19.5523 1.44772 20 2 20H22C22.5523 20 23 19.5523 23 19V11C23 10.4477 22.5523 10 22 10H21V5C21 4.44772 20.5523 4 20 4H4ZM19 6H5V10H6C6.55228 10 7 10.4477 7 11V13H17V11C17 10.4477 17.4477 10 18 10H19V6ZM3 12V18H5V12H3ZM17 18H7V15H17V18ZM19 18V12H21V18H19Z" fill="#7F713E"/>
</svg>
