<svg width="24" height="24" viewBox="0 0 24 24" fill="none" xmlns="http://www.w3.org/2000/svg">
<path d="M15 8.25C15.4142 8.25 15.75 7.91421 15.75 7.5C15.75 7.08579 15.4142 6.75 15 6.75C14.5858 6.75 14.25 7.08579 14.25 7.5C14.25 7.91421 14.5858 8.25 15 8.25Z" fill="#7F713E"/>
<path d="M18 8.25C18.4142 8.25 18.75 7.91421 18.75 7.5C18.75 7.08579 18.4142 6.75 18 6.75C17.5858 6.75 17.25 7.08579 17.25 7.5C17.25 7.91421 17.5858 8.25 18 8.25Z" fill="#7F713E"/>
<path d="M15.75 10.5C15.75 10.9142 15.4142 11.25 15 11.25C14.5858 11.25 14.25 10.9142 14.25 10.5C14.25 10.0858 14.5858 9.75 15 9.75C15.4142 9.75 15.75 10.0858 15.75 10.5Z" fill="#7F713E"/>
<path d="M18 11.25C18.4142 11.25 18.75 10.9142 18.75 10.5C18.75 10.0858 18.4142 9.75 18 9.75C17.5858 9.75 17.25 10.0858 17.25 10.5C17.25 10.9142 17.5858 11.25 18 11.25Z" fill="#7F713E"/>
<path d="M15.75 13.5C15.75 13.9142 15.4142 14.25 15 14.25C14.5858 14.25 14.25 13.9142 14.25 13.5C14.25 13.0858 14.5858 12.75 15 12.75C15.4142 12.75 15.75 13.0858 15.75 13.5Z" fill="#7F713E"/>
<path d="M18 14.25C18.4142 14.25 18.75 13.9142 18.75 13.5C18.75 13.0858 18.4142 12.75 18 12.75C17.5858 12.75 17.25 13.0858 17.25 13.5C17.25 13.9142 17.5858 14.25 18 14.25Z" fill="#7F713E"/>
<path d="M15.75 16.5C15.75 16.9142 15.4142 17.25 15 17.25C14.5858 17.25 14.25 16.9142 14.25 16.5C14.25 16.0858 14.5858 15.75 15 15.75C15.4142 15.75 15.75 16.0858 15.75 16.5Z" fill="#7F713E"/>
<path d="M18 17.25C18.4142 17.25 18.75 16.9142 18.75 16.5C18.75 16.0858 18.4142 15.75 18 15.75C17.5858 15.75 17.25 16.0858 17.25 16.5C17.25 16.9142 17.5858 17.25 18 17.25Z" fill="#7F713E"/>
<path fill-rule="evenodd" clip-rule="evenodd" d="M1.29292 3.29292C1.56075 3.02509 1.95692 2.93157 2.31625 3.05134L5.05435 3.96404C5.17625 3.93765 5.33522 3.90376 5.52451 3.86456C5.98454 3.76928 6.62549 3.64224 7.34991 3.51509C8.77956 3.26414 10.6033 3.00003 12 3.00003C13.3967 3.00003 15.2205 3.26414 16.6501 3.51509C17.3746 3.64224 18.0155 3.76928 18.4755 3.86456C18.6648 3.90376 18.8238 3.93765 18.9457 3.96404L21.6838 3.05134C22.0431 2.93157 22.4393 3.02509 22.7071 3.29292C22.975 3.56075 23.0685 3.95692 22.9487 4.31625L22.0497 7.01327C22.0697 7.08022 22.0922 7.15663 22.1167 7.24136C22.2133 7.5745 22.3421 8.03879 22.4711 8.56401C22.7225 9.58716 23 10.9392 23 12C23 13.0608 22.7225 14.4129 22.4711 15.436C22.3421 15.9613 22.2133 16.4256 22.1167 16.7587C22.0922 16.8434 22.0697 16.9198 22.0497 16.9868L22.9487 19.6838C23.0685 20.0431 22.975 20.4393 22.7071 20.7071C22.4393 20.975 22.0431 21.0685 21.6838 20.9487L18.9454 20.0359C18.823 20.0623 18.6633 20.0963 18.4731 20.1356C18.012 20.2309 17.3698 20.3579 16.6446 20.485C15.2136 20.7359 13.3897 21 12 21C10.6104 21 8.78646 20.7359 7.35549 20.485C6.63027 20.3579 5.98806 20.2309 5.527 20.1356C5.33673 20.0963 5.177 20.0623 5.05466 20.0359L2.31625 20.9487C1.95692 21.0685 1.56075 20.975 1.29292 20.7071C1.02509 20.4393 0.931566 20.0431 1.05134 19.6838L1.95009 16.9875C1.93028 16.9214 1.90796 16.846 1.88365 16.7626C1.78703 16.4307 1.65815 15.968 1.52904 15.4437C1.27737 14.4218 1.00003 13.0701 1.00003 12C1.00003 10.9299 1.27737 9.57827 1.52904 8.55634C1.65815 8.03206 1.78703 7.56934 1.88365 7.2375C1.90796 7.15401 1.93028 7.07865 1.95009 7.01251L1.05134 4.31625C0.931566 3.95692 1.02509 3.56075 1.29292 3.29292ZM3.95234 7.30514L3.95032 7.31149L3.94284 7.3352C3.93612 7.35661 3.926 7.38905 3.91297 7.43145C3.88691 7.51629 3.84927 7.64083 3.8039 7.79664C3.71303 8.10873 3.5919 8.54373 3.47102 9.03459C3.22269 10.043 3.00003 11.1913 3.00003 12C3.00003 12.8087 3.22269 13.9571 3.47102 14.9655C3.5919 15.4563 3.71303 15.8913 3.8039 16.2034C3.84927 16.3592 3.88691 16.4838 3.91297 16.5686C3.926 16.611 3.93612 16.6434 3.94284 16.6649L3.95032 16.6886L3.95234 16.6949C4.0171 16.8971 4.01585 17.1148 3.94871 17.3163L3.58117 18.4189L4.6838 18.0513C4.85714 17.9936 5.04299 17.9844 5.22118 18.0248L5.232 18.0272L5.26734 18.0351C5.29885 18.0421 5.34598 18.0525 5.40723 18.0659C5.52974 18.0926 5.70858 18.1309 5.93165 18.177C6.37815 18.2692 7.00002 18.3922 7.70084 18.515C8.75954 18.7006 9.95973 18.8789 11 18.9577V5.04204C9.95581 5.12072 8.75414 5.29918 7.69569 5.48497C6.99586 5.60781 6.37542 5.73077 5.93012 5.823C5.70765 5.86907 5.52935 5.90738 5.40723 5.93404C5.34618 5.94737 5.29921 5.95778 5.26782 5.96479L5.23262 5.97268L5.22224 5.97502C5.04385 6.01561 4.85736 6.00656 4.6838 5.94871L3.58117 5.58117L3.94871 6.6838C4.01585 6.88523 4.0171 7.10293 3.95234 7.30514ZM16.2992 18.515C15.2405 18.7007 14.0403 18.8789 13 18.9577V5.04203C14.0442 5.12071 15.2459 5.29918 16.3044 5.48497C17.0042 5.60781 17.6246 5.73077 18.0699 5.823C18.2924 5.86907 18.4707 5.90738 18.5928 5.93404C18.6539 5.94737 18.7008 5.95778 18.7322 5.96479L18.7674 5.97268L18.7782 5.97511C18.9566 6.0157 19.1427 6.00656 19.3163 5.94871L20.4189 5.58117L20.0513 6.6838C19.9844 6.88466 19.983 7.10171 20.0472 7.30346L20.0492 7.30992L20.0567 7.33383C20.0635 7.35542 20.0736 7.3881 20.0866 7.43078C20.1127 7.51619 20.1504 7.64149 20.1958 7.79813C20.2867 8.1119 20.408 8.5489 20.5289 9.04121C20.7775 10.0531 21 11.2011 21 12C21 12.799 20.7775 13.9469 20.5289 14.9588C20.408 15.4512 20.2867 15.8882 20.1958 16.2019C20.1504 16.3586 20.1127 16.4839 20.0866 16.5693C20.0736 16.612 20.0635 16.6446 20.0567 16.6662L20.0492 16.6901L20.0471 16.6967C19.9829 16.8985 19.9844 17.1154 20.0513 17.3163L20.4189 18.4189L19.3163 18.0513C19.1429 17.9936 18.9567 17.9845 18.7785 18.0249L18.7681 18.0272L18.7327 18.0351L18.6523 18.0529L18.5928 18.0659C18.4703 18.0926 18.2915 18.1309 18.0684 18.177C17.6219 18.2692 17 18.3922 16.2992 18.515Z" fill="#7F713E"/>
</svg>
