<svg width="24" height="24" viewBox="0 0 24 24" fill="none" xmlns="http://www.w3.org/2000/svg">
<path d="M6 5C5.44772 5 5 5.44772 5 6V6.5C5 7.05228 5.44772 7.5 6 7.5C6.40555 7.5 6.75471 7.25858 6.91162 6.91162C7.25858 6.75471 7.5 6.40555 7.5 6C7.5 5.44772 7.05229 5 6.5 5H6Z" fill="#7F713E"/>
<path d="M9.5 5C8.94772 5 8.5 5.44772 8.5 6C8.5 6.55228 8.94772 7 9.5 7H10.5C11.0523 7 11.5 6.55228 11.5 6C11.5 5.44772 11.0523 5 10.5 5H9.5Z" fill="#7F713E"/>
<path d="M13.5 5C12.9477 5 12.5 5.44772 12.5 6C12.5 6.55228 12.9477 7 13.5 7H14.5C15.0523 7 15.5 6.55228 15.5 6C15.5 5.44772 15.0523 5 14.5 5H13.5Z" fill="#7F713E"/>
<path d="M17.5 5C16.9477 5 16.5 5.44772 16.5 6C16.5 6.40555 16.7414 6.75471 17.0884 6.91162C17.2453 7.25858 17.5944 7.5 18 7.5C18.5523 7.5 19 7.05229 19 6.5V6C19 5.44772 18.5523 5 18 5H17.5Z" fill="#7F713E"/>
<path d="M7 9.5C7 8.94771 6.55228 8.5 6 8.5C5.44772 8.5 5 8.94771 5 9.5V10.5C5 11.0523 5.44772 11.5 6 11.5C6.55228 11.5 7 11.0523 7 10.5V9.5Z" fill="#7F713E"/>
<path d="M19 9.5C19 8.94772 18.5523 8.5 18 8.5C17.4477 8.5 17 8.94772 17 9.5V10.5C17 11.0523 17.4477 11.5 18 11.5C18.5523 11.5 19 11.0523 19 10.5V9.5Z" fill="#7F713E"/>
<path d="M7 13.5C7 12.9477 6.55228 12.5 6 12.5C5.44772 12.5 5 12.9477 5 13.5V14.5C5 15.0523 5.44772 15.5 6 15.5C6.55228 15.5 7 15.0523 7 14.5V13.5Z" fill="#7F713E"/>
<path d="M19 13.5C19 12.9477 18.5523 12.5 18 12.5C17.4477 12.5 17 12.9477 17 13.5V14.5C17 15.0523 17.4477 15.5 18 15.5C18.5523 15.5 19 15.0523 19 14.5V13.5Z" fill="#7F713E"/>
<path d="M6 16.5C6.40555 16.5 6.75471 16.7414 6.91162 17.0884C7.25858 17.2453 7.5 17.5944 7.5 18C7.5 18.5523 7.05228 19 6.5 19H6C5.44772 19 5 18.5523 5 18V17.5C5 16.9477 5.44772 16.5 6 16.5Z" fill="#7F713E"/>
<path d="M19 17.5C19 16.9477 18.5523 16.5 18 16.5C17.5944 16.5 17.2453 16.7414 17.0884 17.0884C16.7414 17.2453 16.5 17.5944 16.5 18C16.5 18.5523 16.9477 19 17.5 19H18C18.5523 19 19 18.5523 19 18V17.5Z" fill="#7F713E"/>
<path d="M9.5 17C8.94771 17 8.5 17.4477 8.5 18C8.5 18.5523 8.94771 19 9.5 19H10.5C11.0523 19 11.5 18.5523 11.5 18C11.5 17.4477 11.0523 17 10.5 17H9.5Z" fill="#7F713E"/>
<path d="M13.5 17C12.9477 17 12.5 17.4477 12.5 18C12.5 18.5523 12.9477 19 13.5 19H14.5C15.0523 19 15.5 18.5523 15.5 18C15.5 17.4477 15.0523 17 14.5 17H13.5Z" fill="#7F713E"/>
<path fill-rule="evenodd" clip-rule="evenodd" d="M2 1C1.44772 1 1 1.44772 1 2V22C1 22.5523 1.44772 23 2 23H22C22.5523 23 23 22.5523 23 22V2C23 1.44772 22.5523 1 22 1H2ZM3 21V3H21V21H3Z" fill="#7F713E"/>
</svg>
